<svg xmlns="http://www.w3.org/2000/svg" width="24" height="24" viewBox="0 0 24 24" fill="none">
  <g clip-path="url(#a)">
    <path fill="#F0F0F0" d="M12 24c6.627 0 12-5.373 12-12S18.627 0 12 0 0 5.373 0 12s5.373 12 12 12Z"/>
    <path fill="#0052B4" d="M2.48 4.694A11.956 11.956 0 0 0 .414 8.87h6.243L2.481 4.694ZM23.587 8.87a11.959 11.959 0 0 0-2.068-4.176L17.344 8.87h6.242ZM.413 15.13a11.958 11.958 0 0 0 2.068 4.176l4.175-4.175H.413ZM19.306 2.48A11.957 11.957 0 0 0 15.13.415v6.242l4.176-4.175ZM4.694 21.52a11.957 11.957 0 0 0 4.176 2.067v-6.243L4.694 21.52ZM8.87.414A11.958 11.958 0 0 0 4.693 2.48L8.87 6.656V.414ZM15.13 23.587a11.958 11.958 0 0 0 4.176-2.067l-4.176-4.176v6.243ZM17.344 15.13l4.175 4.176a11.958 11.958 0 0 0 2.068-4.175h-6.243Z"/>
    <path fill="#D80027" d="M23.898 10.435H13.565V.102a12.12 12.12 0 0 0-3.13 0v10.333H.102a12.12 12.12 0 0 0 0 3.13h10.333v10.333a12.12 12.12 0 0 0 3.13 0V13.565h10.333a12.12 12.12 0 0 0 0-3.13Z"/>
    <path fill="#D80027" d="m15.13 15.13 5.355 5.355c.247-.246.482-.503.706-.77l-4.585-4.585H15.13ZM8.87 15.13l-5.355 5.355c.246.246.503.481.77.706l4.585-4.585V15.13ZM8.87 8.87 3.515 3.515a12.03 12.03 0 0 0-.706.77L7.394 8.87H8.87ZM15.13 8.87l5.355-5.355a12.023 12.023 0 0 0-.77-.705L15.13 7.394V8.87Z"/>
  </g>
  <defs>
    <clipPath id="a">
      <path fill="#fff" d="M0 0h24v24H0z"/>
    </clipPath>
  </defs>
</svg>
