<svg xmlns="http://www.w3.org/2000/svg" viewBox="0 0 24 24" width="24" height="24" fill="none">
  <g clip-path="url(#a)">
    <path fill="#F3F4F5" d="M.81 8.035h22.354C21.537 3.434 17.153.135 11.996.132h-.018C6.82.136 2.436 3.434.809 8.035Z"/>
    <path fill="#D52B1E" d="M23.164 15.938H.809c1.628 4.604 6.016 7.903 11.178 7.903 5.16 0 9.55-3.3 11.177-7.903Z"/>
    <path fill="#0039A6" d="M23.164 15.938c.449-1.269.678-2.605.677-3.951 0-1.386-.24-2.716-.677-3.952H.809a11.825 11.825 0 0 0-.677 3.952c0 1.346.228 2.682.677 3.951h22.355Z"/>
  </g>
  <defs>
    <clipPath id="a">
      <path fill="#fff" d="M0 0h24v24H0z"/>
    </clipPath>
  </defs>
</svg>
